<?xml version="1.0" encoding="utf-8"?>
<!-- Generator: Adobe Illustrator 27.0.1, SVG Export Plug-In . SVG Version: 6.00 Build 0)  -->
<svg version="1.1" xmlns="http://www.w3.org/2000/svg" xmlns:xlink="http://www.w3.org/1999/xlink" x="0px" y="0px"
	 viewBox="0 0 30 30" style="enable-background:new 0 0 30 30;" xml:space="preserve">
<style type="text/css">
	.st0{fill:#344256;}
</style>
<g id="Layer_1">
	<g id="Layer_1_00000041280903378622115000000003742371037356527275_">
	</g>
</g>
<g id="Capa_1">
	<g>
		<g>
			<g>
				<path class="st0" d="M20.4,17.7l-4.2-3.1V8.2C16.2,7.5,15.7,7,15,7c-0.6,0-1.2,0.5-1.2,1.2v7c0,0.4,0.2,0.7,0.5,0.9l4.6,3.5
					c0.2,0.2,0.4,0.2,0.7,0.2c0.4,0,0.7-0.2,0.9-0.5C21,18.8,20.9,18.1,20.4,17.7z"/>
			</g>
		</g>
		<g>
			<g>
				<path class="st0" d="M15,0.1c-8.3,0-15,6.7-15,15s6.7,15,15,15s15-6.7,15-15S23.3,0.1,15,0.1z M15,27.7C8.1,27.7,2.4,22,2.4,15
					S8.1,2.4,15,2.4S27.7,8.1,27.7,15S22,27.7,15,27.7z"/>
			</g>
		</g>
	</g>
</g>
</svg>
