<?xml version="1.0" encoding="utf-8"?>
<!-- Generator: Adobe Illustrator 25.4.1, SVG Export Plug-In . SVG Version: 6.00 Build 0)  -->
<svg version="1.1" xmlns="http://www.w3.org/2000/svg" xmlns:xlink="http://www.w3.org/1999/xlink" x="0px" y="0px"
	 viewBox="0 0 30 30" style="enable-background:new 0 0 30 30;" xml:space="preserve">
<style type="text/css">
	.st0{fill:#344256;}
</style>
<g id="Layer_1">
</g>
<g id="icons">
	<g id="rain_and_snow">
		<path class="st0" d="M22.5,18.1c3.4,0,6.2-2.8,6.2-6.2c0-3.4-2.8-6.2-6.2-6.2c-0.5,0-0.9,0.1-1.4,0.2C20.3,3.1,17.6,1,14.5,1
			c-3.8,0-6.9,3.1-6.9,6.9c0,0.1,0,0.3,0,0.4C7.2,8.2,6.7,8.2,6.3,8.2c-2.7,0-5,2.2-5,5s2.2,5,5,5H22.5z"/>
		<g>
			<path class="st0" d="M17.9,24.7c-1.1,0.9-0.8,2.7,0.3,3.6c1.1,0.9,2.9,1,3.6-0.3c0.9-1.5,2.2-6.5,2.2-6.5S19.3,23.6,17.9,24.7z"
				/>
			<path class="st0" d="M12.7,24.6h-1.6l1.1-1.1c0.2-0.2,0.2-0.6,0-0.9c-0.2-0.2-0.6-0.2-0.9,0l-1.1,1.1v-1.6c0-0.3-0.3-0.6-0.6-0.6
				c-0.3,0-0.6,0.3-0.6,0.6v1.6l-1.1-1.1c-0.2-0.2-0.6-0.2-0.9,0c-0.2,0.2-0.2,0.6,0,0.9l1.1,1.1H6.6c-0.3,0-0.6,0.3-0.6,0.6
				c0,0.3,0.3,0.6,0.6,0.6h1.6L7,27c-0.2,0.2-0.2,0.6,0,0.9c0.2,0.2,0.6,0.2,0.9,0L9,26.8v1.6c0,0.3,0.3,0.6,0.6,0.6
				c0.3,0,0.6-0.3,0.6-0.6v-1.6l1.1,1.1c0.2,0.2,0.6,0.2,0.9,0c0.2-0.2,0.2-0.6,0-0.9l-1.1-1.1h1.6c0.3,0,0.6-0.3,0.6-0.6
				C13.3,24.9,13,24.6,12.7,24.6z"/>
		</g>
	</g>
</g>
</svg>
