<?xml version="1.0" encoding="utf-8"?>
<!-- Generator: Adobe Illustrator 25.4.1, SVG Export Plug-In . SVG Version: 6.00 Build 0)  -->
<svg version="1.1" xmlns="http://www.w3.org/2000/svg" xmlns:xlink="http://www.w3.org/1999/xlink" x="0px" y="0px"
	 viewBox="0 0 30 30" style="enable-background:new 0 0 30 30;" xml:space="preserve">
<style type="text/css">
	.st0{fill:#344256;}
</style>
<g id="Layer_1">
</g>
<g id="icons">
	<g id="sleet">
		<path class="st0" d="M22.9,19c3.6,0,6.5-2.9,6.5-6.5c0-3.6-2.9-6.5-6.5-6.5c-0.5,0-1,0.1-1.5,0.2c-0.9-3-3.7-5.2-7-5.2
			c-4,0-7.3,3.3-7.3,7.3c0,0.1,0,0.3,0,0.4C6.8,8.6,6.3,8.5,5.9,8.5c-2.9,0-5.2,2.3-5.2,5.2S3,19,5.9,19H22.9z"/>
		<path class="st0" d="M12,25.6c0,1.9-1.5,3.4-3.4,3.4c-1.9,0-3.4-1.5-3.4-3.4c0-1.9,1.5-3.4,3.4-3.4C10.5,22.3,12,23.8,12,25.6z"/>
		<path class="st0" d="M24.1,25.6c0,1.9-1.5,3.4-3.4,3.4c-1.9,0-3.4-1.5-3.4-3.4c0-1.9,1.5-3.4,3.4-3.4
			C22.6,22.3,24.1,23.8,24.1,25.6z"/>
	</g>
</g>
</svg>
