<?xml version="1.0" encoding="utf-8"?>
<!-- Generator: Adobe Illustrator 25.4.1, SVG Export Plug-In . SVG Version: 6.00 Build 0)  -->
<svg version="1.1" xmlns="http://www.w3.org/2000/svg" xmlns:xlink="http://www.w3.org/1999/xlink" x="0px" y="0px"
	 viewBox="0 0 30 30" style="enable-background:new 0 0 30 30;" xml:space="preserve">
<style type="text/css">
	.st0{fill:#344256;}
</style>
<g id="Layer_1">
</g>
<g id="icons">
	<g id="raining">
		<path class="st0" d="M22,16.9c3.2,0,5.8-2.6,5.8-5.8c0-3.2-2.6-5.8-5.8-5.8c-0.4,0-0.9,0.1-1.3,0.2C19.9,2.9,17.4,1,14.5,1
			C11,1,8.1,3.9,8.1,7.4c0,0.1,0,0.3,0,0.4C7.7,7.7,7.3,7.7,6.9,7.7c-2.6,0-4.6,2.1-4.6,4.6s2.1,4.6,4.6,4.6H22z"/>
		<g>
			<g>
				<path class="st0" d="M7.1,21.8c-0.6,0.5-0.5,1.5,0.2,2c0.6,0.5,1.6,0.5,2-0.2c0.5-0.8,1.3-3.7,1.3-3.7S7.8,21.2,7.1,21.8z"/>
				<path class="st0" d="M11.3,21.8c-0.6,0.5-0.5,1.5,0.2,2c0.6,0.5,1.6,0.5,2-0.2c0.5-0.8,1.3-3.7,1.3-3.7S12.1,21.2,11.3,21.8z"/>
				<path class="st0" d="M15.6,21.8c-0.6,0.5-0.5,1.5,0.2,2c0.6,0.5,1.6,0.5,2-0.2c0.5-0.8,1.3-3.7,1.3-3.7S16.4,21.2,15.6,21.8z"/>
				<path class="st0" d="M19.9,21.8c-0.6,0.5-0.5,1.5,0.2,2c0.6,0.5,1.6,0.5,2-0.2c0.5-0.8,1.3-3.7,1.3-3.7S20.6,21.2,19.9,21.8z"/>
			</g>
			<g>
				<path class="st0" d="M11.7,26.8c-0.6,0.4-0.4,1.4,0.1,1.8c0.5,0.5,1.5,0.5,1.8-0.1c0.4-0.8,1.1-3.3,1.1-3.3S12.4,26.3,11.7,26.8
					z"/>
				<path class="st0" d="M15.6,26.8c-0.6,0.4-0.4,1.4,0.1,1.8c0.5,0.5,1.5,0.5,1.8-0.1c0.4-0.8,1.1-3.3,1.1-3.3S16.3,26.3,15.6,26.8
					z"/>
			</g>
		</g>
	</g>
</g>
</svg>
