<?xml version="1.0" encoding="utf-8"?>
<!-- Generator: Adobe Illustrator 25.4.1, SVG Export Plug-In . SVG Version: 6.00 Build 0)  -->
<svg version="1.1" xmlns="http://www.w3.org/2000/svg" xmlns:xlink="http://www.w3.org/1999/xlink" x="0px" y="0px"
	 viewBox="0 0 533.3 800" style="enable-background:new 0 0 533.3 800;" xml:space="preserve">
<g id="bg_2_">
</g>
<g id="icons">
	<g id="sun">
		<path d="M93.2,293.6c0.9,5.9-3.2,11.4-9.1,12.2c-5.9,0.9-11.4-3.2-12.2-9.1c-0.9-5.9,3.2-11.4,9.1-12.2
			C86.8,283.6,92.3,287.7,93.2,293.6z"/>
		<g>
			<g>
				<path d="M82.4,273.5c-0.9,0-1.7,0.8-1.7,1.7l0,4.5c0,0.9,0.8,1.7,1.7,1.7c0.9,0,1.7-0.8,1.7-1.7l0-4.5
					C84.1,274.2,83.4,273.4,82.4,273.5z"/>
				<path d="M82.6,316.9c0.9,0,1.7-0.8,1.7-1.7l0-4.5c0-0.9-0.8-1.7-1.7-1.7c-0.9,0-1.7,0.8-1.7,1.7l0,4.5
					C80.9,316.1,81.7,316.9,82.6,316.9z"/>
			</g>
			<g>
				<path d="M60.8,295.3c0,0.9,0.8,1.7,1.7,1.7l4.5,0c0.9,0,1.7-0.8,1.7-1.7c0-0.9-0.8-1.7-1.7-1.7l-4.5,0
					C61.5,293.6,60.8,294.3,60.8,295.3z"/>
				<path d="M104.2,295.1c0-0.9-0.8-1.7-1.7-1.7l-4.5,0c-0.9,0-1.7,0.8-1.7,1.7c0,0.9,0.8,1.7,1.7,1.7l4.5,0
					C103.5,296.8,104.2,296,104.2,295.1z"/>
			</g>
		</g>
		<g>
			<g>
				<path d="M67.1,279.9c-0.7,0.7-0.7,1.7,0,2.4l3.2,3.2c0.7,0.7,1.7,0.6,2.4,0c0.7-0.7,0.6-1.7,0-2.4l-3.2-3.2
					C68.8,279.2,67.7,279.2,67.1,279.9z"/>
				<path d="M97.9,310.5c0.7-0.7,0.7-1.7,0-2.4l-3.2-3.2c-0.7-0.7-1.7-0.7-2.4,0c-0.7,0.7-0.7,1.7,0,2.4l3.2,3.2
					C96.2,311.1,97.3,311.1,97.9,310.5z"/>
			</g>
			<g>
				<path d="M67.2,310.6c0.7,0.7,1.7,0.7,2.4,0l3.2-3.2c0.7-0.7,0.7-1.7,0-2.4c-0.7-0.7-1.7-0.6-2.4,0l-3.2,3.2
					C66.5,308.9,66.6,309.9,67.2,310.6z"/>
				<path d="M97.8,279.8c-0.7-0.7-1.7-0.7-2.4,0l-3.2,3.2c-0.7,0.7-0.7,1.7,0,2.4c0.7,0.7,1.7,0.6,2.4,0l3.2-3.2
					C98.5,281.5,98.5,280.4,97.8,279.8z"/>
			</g>
		</g>
	</g>
	<g id="moon">
		<path d="M181.5,299c-7.6,0-13.7-6.2-13.7-13.7c0-2.3,0.6-4.6,1.6-6.5c-6,1.4-10.5,6.9-10.5,13.4c0,7.6,6.2,13.7,13.7,13.7
			c5.2,0,9.8-2.9,12.1-7.3C183.7,298.8,182.6,299,181.5,299z"/>
	</g>
	<g id="cloud">
		<path d="M276.6,302.7c4.7,0,8.4-3.8,8.4-8.4c0-4.7-3.8-8.4-8.4-8.4c-0.7,0-1.3,0.1-1.9,0.2c-1.2-3.9-4.8-6.7-9.1-6.7
			c-5.2,0-9.5,4.2-9.5,9.5c0,0.2,0,0.4,0,0.6c-0.6-0.2-1.2-0.2-1.8-0.2c-3.8,0-6.8,3-6.8,6.8c0,3.8,3,6.8,6.8,6.8H276.6z"/>
	</g>
	<g id="raini_1_">
		<path d="M372.1,302.7c4.7,0,8.4-3.8,8.4-8.4c0-4.7-3.8-8.4-8.4-8.4c-0.7,0-1.3,0.1-1.9,0.2c-1.2-3.9-4.8-6.7-9.1-6.7
			c-5.2,0-9.5,4.2-9.5,9.5c0,0.2,0,0.4,0,0.6c-0.6-0.2-1.2-0.2-1.8-0.2c-3.8,0-6.8,3-6.8,6.8c0,3.8,3,6.8,6.8,6.8H372.1z"/>
		<path d="M356.4,312.7c-1.5,1.2-1.1,3.7,0.4,5c1.5,1.3,4,1.3,5-0.4c1.2-2,3.1-8.9,3.1-8.9S358.3,311.2,356.4,312.7z"/>
	</g>
	<g id="snowy">
		<path d="M467.7,302.7c4.7,0,8.4-3.8,8.4-8.4c0-4.7-3.8-8.4-8.4-8.4c-0.7,0-1.3,0.1-1.9,0.2c-1.2-3.9-4.8-6.7-9.1-6.7
			c-5.2,0-9.5,4.2-9.5,9.5c0,0.2,0,0.4,0,0.6c-0.6-0.2-1.2-0.2-1.8-0.2c-3.8,0-6.8,3-6.8,6.8c0,3.8,3,6.8,6.8,6.8H467.7z"/>
		<path d="M462.5,311.7h-2.6l1.8-1.8c0.4-0.4,0.4-1,0-1.4c-0.4-0.4-1-0.4-1.4,0l-1.8,1.8v-2.6c0-0.6-0.5-1-1-1c-0.6,0-1,0.5-1,1v2.6
			l-1.8-1.8c-0.4-0.4-1-0.4-1.4,0c-0.4,0.4-0.4,1,0,1.4l1.8,1.8h-2.6c-0.6,0-1,0.5-1,1c0,0.6,0.5,1,1,1h2.6l-1.8,1.8
			c-0.4,0.4-0.4,1,0,1.4c0.4,0.4,1,0.4,1.4,0l1.8-1.8v2.6c0,0.6,0.5,1,1,1c0.6,0,1-0.5,1-1v-2.6l1.8,1.8c0.4,0.4,1,0.4,1.4,0
			c0.4-0.4,0.4-1,0-1.4l-1.8-1.8h2.6c0.6,0,1-0.5,1-1C463.5,312.2,463.1,311.7,462.5,311.7z"/>
	</g>
	<g id="sleet">
		<path d="M85.3,390.5c4.7,0,8.4-3.8,8.4-8.4c0-4.7-3.8-8.4-8.4-8.4c-0.7,0-1.3,0.1-1.9,0.2c-1.2-3.9-4.8-6.7-9.1-6.7
			c-5.2,0-9.5,4.2-9.5,9.5c0,0.2,0,0.4,0,0.6c-0.6-0.2-1.2-0.2-1.8-0.2c-3.8,0-6.8,3-6.8,6.8c0,3.8,3,6.8,6.8,6.8H85.3z"/>
		<path d="M71.2,399.2c0,2.4-2,4.4-4.4,4.4c-2.4,0-4.4-2-4.4-4.4c0-2.4,2-4.4,4.4-4.4C69.2,394.8,71.2,396.7,71.2,399.2z"/>
		<path d="M86.9,399.2c0,2.4-2,4.4-4.4,4.4c-2.4,0-4.4-2-4.4-4.4c0-2.4,2-4.4,4.4-4.4C84.9,394.8,86.9,396.7,86.9,399.2z"/>
	</g>
	<g id="flashing">
		<path d="M181.1,390.5c4.7,0,8.4-3.8,8.4-8.4c0-4.7-3.8-8.4-8.4-8.4c-0.7,0-1.3,0.1-1.9,0.2c-1.2-3.9-4.8-6.7-9.1-6.7
			c-5.2,0-9.5,4.2-9.5,9.5c0,0.2,0,0.4,0,0.6c-0.6-0.2-1.2-0.2-1.8-0.2c-3.8,0-6.8,3-6.8,6.8c0,3.8,3,6.8,6.8,6.8H181.1z"/>
		<polygon points="169,394.3 176.3,394.3 172.7,401.2 178.5,401.2 168.5,413.1 170.8,405.9 164.1,405.9 		"/>
	</g>
	<g id="raining">
		<path d="M276.6,390.5c4.7,0,8.4-3.8,8.4-8.4c0-4.7-3.8-8.4-8.4-8.4c-0.7,0-1.3,0.1-1.9,0.2c-1.2-3.9-4.8-6.7-9.1-6.7
			c-5.2,0-9.5,4.2-9.5,9.5c0,0.2,0,0.4,0,0.6c-0.6-0.2-1.2-0.2-1.8-0.2c-3.8,0-6.8,3-6.8,6.8c0,3.8,3,6.8,6.8,6.8H276.6z"/>
		<g>
			<g>
				<path d="M254.7,397.6c-0.9,0.7-0.7,2.2,0.2,3c0.9,0.8,2.4,0.8,3-0.2c0.7-1.2,1.9-5.4,1.9-5.4S255.8,396.7,254.7,397.6z"/>
				<path d="M261,397.6c-0.9,0.7-0.7,2.2,0.2,3c0.9,0.8,2.4,0.8,3-0.2c0.7-1.2,1.9-5.4,1.9-5.4S262.1,396.7,261,397.6z"/>
				<path d="M267.2,397.6c-0.9,0.7-0.7,2.2,0.2,3c0.9,0.8,2.4,0.8,3-0.2c0.7-1.2,1.9-5.4,1.9-5.4S268.3,396.7,267.2,397.6z"/>
				<path d="M273.5,397.6c-0.9,0.7-0.7,2.2,0.2,3c0.9,0.8,2.4,0.8,3-0.2c0.7-1.2,1.9-5.4,1.9-5.4S274.6,396.7,273.5,397.6z"/>
			</g>
			<g>
				<path d="M261.6,405c-0.8,0.7-0.6,2,0.2,2.7c0.8,0.7,2.2,0.7,2.7-0.2c0.6-1.1,1.7-4.9,1.7-4.9S262.6,404.2,261.6,405z"/>
				<path d="M267.2,405c-0.8,0.7-0.6,2,0.2,2.7c0.8,0.7,2.2,0.7,2.7-0.2c0.6-1.1,1.7-4.9,1.7-4.9S268.2,404.2,267.2,405z"/>
			</g>
		</g>
	</g>
	<g id="rain_and_snow">
		<path d="M372.4,390.5c4.7,0,8.4-3.8,8.4-8.4c0-4.7-3.8-8.4-8.4-8.4c-0.7,0-1.3,0.1-1.9,0.2c-1.2-3.9-4.8-6.7-9.1-6.7
			c-5.2,0-9.5,4.2-9.5,9.5c0,0.2,0,0.4,0,0.6c-0.6-0.2-1.2-0.2-1.8-0.2c-3.8,0-6.8,3-6.8,6.8c0,3.8,3,6.8,6.8,6.8H372.4z"/>
		<g>
			<path d="M366.1,399.5c-1.5,1.2-1.1,3.7,0.4,4.9c1.5,1.3,4,1.3,5-0.4c1.2-2.1,3.1-8.9,3.1-8.9S368,398,366.1,399.5z"/>
			<path d="M359,399.4h-2.1l1.5-1.5c0.3-0.3,0.3-0.9,0-1.2c-0.3-0.3-0.9-0.3-1.2,0l-1.5,1.5V396c0-0.5-0.4-0.9-0.9-0.9
				c-0.5,0-0.9,0.4-0.9,0.9v2.1l-1.5-1.5c-0.3-0.3-0.9-0.3-1.2,0c-0.3,0.3-0.3,0.9,0,1.2l1.5,1.5h-2.1c-0.5,0-0.9,0.4-0.9,0.9
				c0,0.5,0.4,0.9,0.9,0.9h2.1l-1.5,1.5c-0.3,0.3-0.3,0.9,0,1.2c0.3,0.3,0.9,0.3,1.2,0l1.5-1.5v2.1c0,0.5,0.4,0.9,0.9,0.9
				c0.5,0,0.9-0.4,0.9-0.9v-2.1l1.5,1.5c0.3,0.3,0.9,0.3,1.2,0c0.3-0.3,0.3-0.9,0-1.2l-1.5-1.5h2.1c0.5,0,0.9-0.4,0.9-0.9
				C359.8,399.7,359.4,399.4,359,399.4z"/>
		</g>
	</g>
	<g id="rain_with_flashing">
		<path d="M467.7,390.5c4.7,0,8.4-3.8,8.4-8.4c0-4.7-3.8-8.4-8.4-8.4c-0.7,0-1.3,0.1-1.9,0.2c-1.2-3.9-4.8-6.7-9.1-6.7
			c-5.2,0-9.5,4.2-9.5,9.5c0,0.2,0,0.4,0,0.6c-0.6-0.2-1.2-0.2-1.8-0.2c-3.8,0-6.8,3-6.8,6.8c0,3.8,3,6.8,6.8,6.8H467.7z"/>
		<g>
			<path d="M445.9,399.5c-1.5,1.2-1.1,3.7,0.4,4.9c1.5,1.3,4,1.3,5-0.4c1.2-2.1,3.1-8.9,3.1-8.9S447.7,398,445.9,399.5z"/>
			<polygon points="460.6,394.3 467.9,394.3 464.2,401.2 470,401.2 460,413.1 462.3,405.9 455.7,405.9 			"/>
		</g>
	</g>
	<g id="soft_rain">
		<path d="M85.3,487c4.7,0,8.4-3.8,8.4-8.4c0-4.7-3.8-8.4-8.4-8.4c-0.7,0-1.3,0.1-1.9,0.2c-1.2-3.9-4.8-6.7-9.1-6.7
			c-5.2,0-9.5,4.2-9.5,9.5c0,0.2,0,0.4,0,0.6c-0.6-0.2-1.2-0.2-1.8-0.2c-3.8,0-6.8,3-6.8,6.8c0,3.8,3,6.8,6.8,6.8H85.3z"/>
		<path d="M63.1,496c-1.5,1.2-1.1,3.7,0.4,4.9c1.5,1.3,4,1.3,4.9-0.4c1.2-2,3.1-8.9,3.1-8.9S64.9,494.5,63.1,496z"/>
		<path d="M76.8,496c-1.5,1.2-1.1,3.7,0.4,4.9c1.5,1.3,4,1.3,4.9-0.4c1.2-2,3.1-8.9,3.1-8.9S78.7,494.5,76.8,496z"/>
	</g>
	<g id="temperature">
		<path d="M171.3,477.6c-1.4,0-2.6,1.2-2.6,2.6v9.2l-0.4,0.3c-1.3,0.9-2,2.4-2,3.9c0,2.7,2.2,4.9,4.9,4.9c2.7,0,4.9-2.2,4.9-4.9
			c0-1.6-0.7-3-2-3.9l-0.4-0.3v-9.2C173.9,478.8,172.7,477.6,171.3,477.6z"/>
		<path d="M171.3,506c-6.9,0-12.6-5.6-12.6-12.6c0-3.7,1.6-7.1,4.3-9.5v-15.1c0-4.5,3.7-8.2,8.2-8.2c4.5,0,8.2,3.7,8.2,8.2V484
			c2.8,2.4,4.3,5.8,4.3,9.5C183.9,500.4,178.2,506,171.3,506z M171.3,464.2c-2.6,0-4.7,2.1-4.7,4.7v16.8l-0.7,0.5
			c-2.3,1.7-3.6,4.4-3.6,7.2c0,5,4.1,9,9,9c5,0,9-4.1,9-9c0-2.9-1.3-5.5-3.6-7.2l-0.7-0.5v-16.8C176,466.3,173.9,464.2,171.3,464.2z
			"/>
		<g>
			<rect x="178.9" y="470.1" width="1.4" height="2.5"/>
			<rect x="178.9" y="475.1" width="1.4" height="2.5"/>
			<rect x="178.9" y="480.1" width="1.4" height="2.5"/>
		</g>
	</g>
	<g id="suny_with_clouds">
		<g>
			<path d="M272,462.3c-0.8,0-1.4,0.6-1.4,1.4l0,3.8c0,0.8,0.6,1.4,1.4,1.4c0.8,0,1.4-0.6,1.4-1.4l0-3.8
				C273.4,462.9,272.8,462.3,272,462.3z"/>
			<path d="M272.2,498.6c0.8,0,1.4-0.6,1.4-1.4l0-3.8c0-0.8-0.6-1.4-1.4-1.4c-0.8,0-1.4,0.6-1.4,1.4l0,3.8
				C270.8,497.9,271.4,498.6,272.2,498.6z"/>
			<path d="M290.2,480.4c0-0.8-0.6-1.4-1.4-1.4l-3.8,0c-0.8,0-1.4,0.6-1.4,1.4c0,0.8,0.6,1.4,1.4,1.4l3.8,0
				C289.6,481.8,290.2,481.1,290.2,480.4z"/>
			<path d="M285,493.2c0.5-0.5,0.5-1.4,0-2l-2.7-2.7c-0.6-0.5-1.4-0.5-2,0c-0.5,0.5-0.5,1.4,0,2l2.7,2.7
				C283.5,493.8,284.4,493.8,285,493.2z"/>
			<path d="M284.9,467.6c-0.6-0.5-1.4-0.5-2,0l-2.7,2.7c-0.5,0.6-0.5,1.4,0,2c0.6,0.5,1.4,0.5,2,0l2.7-2.7
				C285.4,469,285.4,468.1,284.9,467.6z"/>
		</g>
		<path d="M272,488.9c4.7,0,8.4-3.8,8.4-8.4c0-4.7-3.8-8.4-8.4-8.4c-0.7,0-1.3,0.1-1.9,0.2c-1.2-3.9-4.8-6.7-9.1-6.7
			c-5.2,0-9.5,4.2-9.5,9.5c0,0.2,0,0.4,0,0.6c-0.6-0.2-1.2-0.2-1.8-0.2c-3.8,0-6.8,3-6.8,6.8c0,3.8,3,6.8,6.8,6.8H272z"/>
	</g>
	<g id="sunny_with_rain_clouds">
		<g>
			<g>
				<path d="M367.5,462.3c-0.8,0-1.4,0.6-1.4,1.4l0,3.8c0,0.8,0.6,1.4,1.4,1.4c0.8,0,1.4-0.6,1.4-1.4l0-3.8
					C368.9,462.9,368.3,462.3,367.5,462.3z"/>
				<path d="M367.7,498.6c0.8,0,1.4-0.6,1.4-1.4l0-3.8c0-0.8-0.6-1.4-1.4-1.4c-0.8,0-1.4,0.6-1.4,1.4l0,3.8
					C366.3,497.9,366.9,498.6,367.7,498.6z"/>
				<path d="M385.7,480.4c0-0.8-0.6-1.4-1.4-1.4l-3.8,0c-0.8,0-1.4,0.6-1.4,1.4c0,0.8,0.6,1.4,1.4,1.4l3.8,0
					C385.1,481.8,385.7,481.1,385.7,480.4z"/>
				<path d="M380.5,493.2c0.5-0.5,0.5-1.4,0-2l-2.7-2.7c-0.6-0.5-1.4-0.5-2,0c-0.5,0.5-0.5,1.4,0,2l2.7,2.7
					C379,493.8,379.9,493.8,380.5,493.2z"/>
				<path d="M380.4,467.6c-0.6-0.5-1.4-0.5-2,0l-2.7,2.7c-0.5,0.6-0.5,1.4,0,2c0.6,0.5,1.4,0.5,2,0l2.7-2.7
					C380.9,469,380.9,468.1,380.4,467.6z"/>
			</g>
			<path d="M367.5,488.9c4.7,0,8.4-3.8,8.4-8.4c0-4.7-3.8-8.4-8.4-8.4c-0.7,0-1.3,0.1-1.9,0.2c-1.2-3.9-4.8-6.7-9.1-6.7
				c-5.2,0-9.5,4.2-9.5,9.5c0,0.2,0,0.4,0,0.6c-0.6-0.2-1.2-0.2-1.8-0.2c-3.8,0-6.8,3-6.8,6.8c0,3.8,3,6.8,6.8,6.8H367.5z"/>
		</g>
		<path d="M351.8,497.8c-1.5,1.2-1.1,3.7,0.4,4.9c1.5,1.3,4,1.3,4.9-0.4c1.2-2,3.1-8.9,3.1-8.9S353.6,496.3,351.8,497.8z"/>
	</g>
	<g id="suny_with_snow_clouds">
		<g>
			<g>
				<path d="M462.9,462.3c-0.8,0-1.4,0.6-1.4,1.4l0,3.8c0,0.8,0.6,1.4,1.4,1.4c0.8,0,1.4-0.6,1.4-1.4l0-3.8
					C464.3,462.9,463.7,462.3,462.9,462.3z"/>
				<path d="M463,498.6c0.8,0,1.4-0.6,1.4-1.4l0-3.8c0-0.8-0.6-1.4-1.4-1.4c-0.8,0-1.4,0.6-1.4,1.4l0,3.8
					C461.6,497.9,462.2,498.6,463,498.6z"/>
				<path d="M481.1,480.4c0-0.8-0.6-1.4-1.4-1.4l-3.8,0c-0.8,0-1.4,0.6-1.4,1.4c0,0.8,0.6,1.4,1.4,1.4l3.8,0
					C480.5,481.8,481.1,481.1,481.1,480.4z"/>
				<path d="M475.8,493.2c0.5-0.5,0.5-1.4,0-2l-2.7-2.7c-0.6-0.5-1.4-0.5-2,0c-0.5,0.5-0.5,1.4,0,2l2.7,2.7
					C474.4,493.8,475.3,493.8,475.8,493.2z"/>
				<path d="M475.7,467.6c-0.5-0.5-1.4-0.5-2,0l-2.7,2.7c-0.5,0.6-0.5,1.4,0,2c0.6,0.5,1.4,0.5,2,0l2.7-2.7
					C476.3,469,476.3,468.1,475.7,467.6z"/>
			</g>
			<path d="M462.9,488.9c4.7,0,8.4-3.8,8.4-8.4c0-4.7-3.8-8.4-8.4-8.4c-0.7,0-1.3,0.1-1.9,0.2c-1.2-3.9-4.8-6.7-9.1-6.7
				c-5.2,0-9.5,4.2-9.5,9.5c0,0.2,0,0.4,0,0.6c-0.6-0.2-1.2-0.2-1.8-0.2c-3.8,0-6.8,3-6.8,6.8c0,3.8,3,6.8,6.8,6.8H462.9z"/>
		</g>
		<path d="M457.6,497.5h-2.6l1.8-1.8c0.4-0.4,0.4-1,0-1.4c-0.4-0.4-1-0.4-1.4,0l-1.8,1.8v-2.6c0-0.6-0.5-1-1-1c-0.6,0-1,0.5-1,1v2.6
			l-1.8-1.8c-0.4-0.4-1-0.4-1.4,0c-0.4,0.4-0.4,1,0,1.4l1.8,1.8h-2.6c-0.6,0-1,0.5-1,1c0,0.6,0.5,1,1,1h2.6l-1.8,1.8
			c-0.4,0.4-0.4,1,0,1.4c0.4,0.4,1,0.4,1.4,0l1.8-1.8v2.6c0,0.6,0.5,1,1,1c0.6,0,1-0.5,1-1V501l1.8,1.8c0.4,0.4,1,0.4,1.4,0
			c0.4-0.4,0.4-1,0-1.4l-1.8-1.8h2.6c0.6,0,1-0.5,1-1C458.7,498,458.2,497.5,457.6,497.5z"/>
	</g>
	<g id="sun_and_flashing">
		<g>
			<g>
				<path d="M81.3,560.2c-0.8,0-1.4,0.6-1.4,1.4l0,3.8c0,0.8,0.6,1.4,1.4,1.4c0.8,0,1.4-0.6,1.4-1.4l0-3.8
					C82.7,560.8,82.1,560.2,81.3,560.2z"/>
				<path d="M81.4,596.5c0.8,0,1.4-0.6,1.4-1.4l0-3.8c0-0.8-0.6-1.4-1.4-1.4c-0.8,0-1.4,0.6-1.4,1.4l0,3.8
					C80,595.8,80.6,596.5,81.4,596.5z"/>
				<path d="M99.5,578.2c0-0.8-0.6-1.4-1.4-1.4l-3.8,0c-0.8,0-1.4,0.6-1.4,1.4c0,0.8,0.6,1.4,1.4,1.4l3.8,0
					C98.9,579.7,99.5,579,99.5,578.2z"/>
				<path d="M94.2,591.1c0.5-0.5,0.5-1.4,0-2l-2.7-2.7c-0.6-0.5-1.4-0.5-2,0c-0.5,0.6-0.5,1.4,0,2l2.7,2.7
					C92.8,591.6,93.7,591.6,94.2,591.1z"/>
				<path d="M94.1,565.4c-0.5-0.5-1.4-0.5-2,0l-2.7,2.7c-0.5,0.6-0.5,1.4,0,2c0.6,0.5,1.4,0.5,2,0l2.7-2.7
					C94.7,566.9,94.7,566,94.1,565.4z"/>
			</g>
			<path d="M81.2,586.8c4.7,0,8.4-3.8,8.4-8.4c0-4.7-3.8-8.4-8.4-8.4c-0.7,0-1.3,0.1-1.9,0.2c-1.2-3.9-4.8-6.7-9.1-6.7
				c-5.2,0-9.5,4.2-9.5,9.5c0,0.2,0,0.4,0,0.6c-0.6-0.2-1.2-0.2-1.8-0.2c-3.8,0-6.8,3-6.8,6.8c0,3.8,3,6.8,6.8,6.8H81.2z"/>
		</g>
		<polygon points="67,589.9 74.4,589.9 70.7,596.8 76.5,596.8 66.5,608.6 68.8,601.5 62.1,601.5 		"/>
	</g>
	<g id="sun_and_snow">
		<g>
			<g>
				<path d="M176.7,560.2c-0.8,0-1.4,0.6-1.4,1.4l0,3.8c0,0.8,0.6,1.4,1.4,1.4c0.8,0,1.4-0.6,1.4-1.4l0-3.8
					C178.1,560.8,177.5,560.2,176.7,560.2z"/>
				<path d="M194.9,578.2c0-0.8-0.6-1.4-1.4-1.4l-3.8,0c-0.8,0-1.4,0.6-1.4,1.4c0,0.8,0.6,1.4,1.4,1.4l3.8,0
					C194.3,579.7,194.9,579,194.9,578.2z"/>
				<path d="M189.7,591.1c0.5-0.5,0.5-1.4,0-2l-2.7-2.7c-0.6-0.5-1.4-0.5-2,0c-0.5,0.6-0.5,1.4,0,2l2.7,2.7
					C188.2,591.6,189.1,591.6,189.7,591.1z"/>
				<path d="M189.6,565.4c-0.5-0.5-1.4-0.5-2,0l-2.7,2.7c-0.5,0.6-0.5,1.4,0,2c0.6,0.5,1.4,0.5,2,0l2.7-2.7
					C190.1,566.9,190.1,566,189.6,565.4z"/>
			</g>
			<path d="M176.7,586.8c4.7,0,8.4-3.8,8.4-8.4c0-4.7-3.8-8.4-8.4-8.4c-0.7,0-1.3,0.1-1.9,0.2c-1.2-3.9-4.8-6.7-9.1-6.7
				c-5.2,0-9.5,4.2-9.5,9.5c0,0.2,0,0.4,0,0.6c-0.6-0.2-1.2-0.2-1.8-0.2c-3.8,0-6.8,3-6.8,6.8c0,3.8,3,6.8,6.8,6.8H176.7z"/>
		</g>
		<g>
			<path d="M163.8,594h-2.3l1.6-1.6c0.4-0.4,0.4-0.9,0-1.3c-0.4-0.4-0.9-0.4-1.3,0l-1.6,1.6v-2.3c0-0.5-0.4-0.9-0.9-0.9
				c-0.5,0-0.9,0.4-0.9,0.9v2.3l-1.6-1.6c-0.4-0.4-0.9-0.4-1.3,0c-0.4,0.4-0.4,0.9,0,1.3l1.6,1.6h-2.3c-0.5,0-0.9,0.4-0.9,0.9
				c0,0.5,0.4,0.9,0.9,0.9h2.3l-1.6,1.6c-0.4,0.4-0.4,0.9,0,1.3c0.4,0.4,0.9,0.4,1.3,0l1.6-1.6v2.3c0,0.5,0.4,0.9,0.9,0.9
				c0.5,0,0.9-0.4,0.9-0.9v-2.3l1.6,1.6c0.4,0.4,0.9,0.4,1.3,0c0.4-0.4,0.4-0.9,0-1.3l-1.6-1.6h2.3c0.5,0,0.9-0.4,0.9-0.9
				C164.7,594.4,164.3,594,163.8,594z"/>
			<path d="M179,594h-2.3l1.6-1.6c0.4-0.4,0.4-0.9,0-1.3c-0.4-0.4-0.9-0.4-1.3,0l-1.6,1.6v-2.3c0-0.5-0.4-0.9-0.9-0.9
				c-0.5,0-0.9,0.4-0.9,0.9v2.3l-1.6-1.6c-0.4-0.4-0.9-0.4-1.3,0c-0.4,0.4-0.4,0.9,0,1.3l1.6,1.6H170c-0.5,0-0.9,0.4-0.9,0.9
				c0,0.5,0.4,0.9,0.9,0.9h2.3l-1.6,1.6c-0.4,0.4-0.4,0.9,0,1.3c0.4,0.4,0.9,0.4,1.3,0l1.6-1.6v2.3c0,0.5,0.4,0.9,0.9,0.9
				c0.5,0,0.9-0.4,0.9-0.9v-2.3l1.6,1.6c0.4,0.4,0.9,0.4,1.3,0c0.4-0.4,0.4-0.9,0-1.3l-1.6-1.6h2.3c0.5,0,0.9-0.4,0.9-0.9
				C179.9,594.4,179.5,594,179,594z"/>
		</g>
	</g>
	<g id="night_snow">
		<path d="M271,586.8c4.7,0,8.4-3.8,8.4-8.4c0-4.7-3.8-8.4-8.4-8.4c-0.7,0-1.3,0.1-1.9,0.2c-1.2-3.9-4.8-6.7-9.1-6.7
			c-5.2,0-9.5,4.2-9.5,9.5c0,0.2,0,0.4,0,0.6c-0.6-0.2-1.2-0.2-1.8-0.2c-3.8,0-6.8,3-6.8,6.8c0,3.8,3,6.8,6.8,6.8H271z"/>
		<g>
			<path d="M258.1,594h-2.3l1.6-1.6c0.4-0.4,0.4-0.9,0-1.3c-0.4-0.4-0.9-0.4-1.3,0l-1.6,1.6v-2.3c0-0.5-0.4-0.9-0.9-0.9
				c-0.5,0-0.9,0.4-0.9,0.9v2.3l-1.6-1.6c-0.4-0.4-0.9-0.4-1.3,0c-0.4,0.4-0.4,0.9,0,1.3l1.6,1.6h-2.3c-0.5,0-0.9,0.4-0.9,0.9
				c0,0.5,0.4,0.9,0.9,0.9h2.3l-1.6,1.6c-0.4,0.4-0.4,0.9,0,1.3c0.4,0.4,0.9,0.4,1.3,0l1.6-1.6v2.3c0,0.5,0.4,0.9,0.9,0.9
				c0.5,0,0.9-0.4,0.9-0.9v-2.3l1.6,1.6c0.4,0.4,0.9,0.4,1.3,0c0.4-0.4,0.4-0.9,0-1.3l-1.6-1.6h2.3c0.5,0,0.9-0.4,0.9-0.9
				C259,594.4,258.6,594,258.1,594z"/>
			<path d="M273.3,594H271l1.6-1.6c0.4-0.4,0.4-0.9,0-1.3c-0.4-0.4-0.9-0.4-1.3,0l-1.6,1.6v-2.3c0-0.5-0.4-0.9-0.9-0.9
				c-0.5,0-0.9,0.4-0.9,0.9v2.3l-1.6-1.6c-0.4-0.4-0.9-0.4-1.3,0c-0.4,0.4-0.4,0.9,0,1.3l1.6,1.6h-2.3c-0.5,0-0.9,0.4-0.9,0.9
				c0,0.5,0.4,0.9,0.9,0.9h2.3l-1.6,1.6c-0.4,0.4-0.4,0.9,0,1.3c0.4,0.4,0.9,0.4,1.3,0l1.6-1.6v2.3c0,0.5,0.4,0.9,0.9,0.9
				c0.5,0,0.9-0.4,0.9-0.9v-2.3l1.6,1.6c0.4,0.4,0.9,0.4,1.3,0c0.4-0.4,0.4-0.9,0-1.3l-1.6-1.6h2.3c0.5,0,0.9-0.4,0.9-0.9
				C274.2,594.4,273.8,594,273.3,594z"/>
		</g>
		<path d="M291,576.3c-6.6,0-11.9-5.3-11.9-11.9c0-2,0.5-3.9,1.4-5.6c-4.7,1.1-8.3,5-9,9.9c5,0.3,9,4.5,9,9.6c0,1.2-0.2,2.4-0.6,3.4
			c1.1,0.3,2.2,0.5,3.4,0.5c4.5,0,8.5-2.5,10.5-6.3C292.9,576.2,292,576.3,291,576.3z"/>
	</g>
	<g id="night_cloudi">
		<path d="M368.2,586.8c4.7,0,8.4-3.8,8.4-8.4c0-4.7-3.8-8.4-8.4-8.4c-0.7,0-1.3,0.1-1.9,0.2c-1.2-3.9-4.8-6.7-9.1-6.7
			c-5.2,0-9.5,4.2-9.5,9.5c0,0.2,0,0.4,0,0.6c-0.6-0.2-1.2-0.2-1.8-0.2c-3.8,0-6.8,3-6.8,6.8c0,3.8,3,6.8,6.8,6.8H368.2z"/>
		<path d="M388.2,576.3c-6.6,0-11.9-5.3-11.9-11.9c0-2,0.5-3.9,1.4-5.6c-4.7,1.1-8.3,5-9,9.9c5,0.3,9,4.5,9,9.6
			c0,1.2-0.2,2.4-0.6,3.4c1.1,0.3,2.2,0.5,3.4,0.5c4.5,0,8.5-2.5,10.5-6.3C390.1,576.2,389.2,576.3,388.2,576.3z"/>
	</g>
	<g id="fog">
		<path d="M471.1,567.6h-26.8c-0.6,0-1.2-0.5-1.2-1.2c0-0.6,0.5-1.2,1.2-1.2h26.8c0.6,0,1.2,0.5,1.2,1.2
			C472.2,567.1,471.7,567.6,471.1,567.6z"/>
		<path d="M477.7,574.4h-40.1c-0.8,0-1.4-0.6-1.4-1.4c0-0.8,0.6-1.4,1.4-1.4h40.1c0.8,0,1.4,0.6,1.4,1.4
			C479.1,573.8,478.5,574.4,477.7,574.4z"/>
		<path d="M475.9,580.9h-36.4c-0.8,0-1.4-0.6-1.4-1.4c0-0.8,0.6-1.4,1.4-1.4h36.4c0.8,0,1.4,0.6,1.4,1.4
			C477.2,580.3,476.6,580.9,475.9,580.9z"/>
		<path d="M471.1,587.2h-26.8c-0.6,0-1.2-0.5-1.2-1.2c0-0.6,0.5-1.2,1.2-1.2h26.8c0.6,0,1.2,0.5,1.2,1.2
			C472.2,586.7,471.7,587.2,471.1,587.2z"/>
	</g>
	<g id="rain_with_sleet">
		<g>
			<path d="M81.2,683.9c4.7,0,8.4-3.8,8.4-8.4c0-4.7-3.8-8.4-8.4-8.4c-0.7,0-1.3,0.1-1.9,0.2c-1.2-3.9-4.8-6.7-9.1-6.7
				c-5.2,0-9.5,4.2-9.5,9.5c0,0.2,0,0.4,0,0.6c-0.6-0.2-1.2-0.2-1.8-0.2c-3.8,0-6.8,3-6.8,6.8c0,3.8,3,6.8,6.8,6.8H81.2z"/>
		</g>
		<g>
			<path d="M59.5,692.6c-1.5,1.2-1.1,3.7,0.4,4.9c1.5,1.3,4,1.3,4.9-0.4c1.2-2,3.1-8.9,3.1-8.9S61.4,691.1,59.5,692.6z"/>
			<path d="M83.4,693.4c0,2.4-2,4.4-4.4,4.4s-4.4-2-4.4-4.4c0-2.4,2-4.4,4.4-4.4S83.4,690.9,83.4,693.4z"/>
		</g>
	</g>
	<path id="water" d="M158.4,685.8c0,7.2,5.8,13,13,13c7.2,0,13-5.8,13-13c0-7.5-13-25.2-13-25.2S158.4,678.5,158.4,685.8z"/>
	<g id="wind">
		<path d="M250.5,698.9c-0.7,0-1.3-0.6-1.3-1.3v-35c0-0.7,0.6-1.3,1.3-1.3c0.7,0,1.3,0.6,1.3,1.3v35
			C251.8,698.4,251.3,698.9,250.5,698.9z"/>
		<g>
			<polygon points="267.6,678.7 272.6,678.1 272.6,664.6 267.6,664.1 			"/>
			<path d="M282.8,665.8l-3.3-0.4v11.8l3.3-0.4c1.3-0.1,2.3-1.3,2.3-2.6v-5.9C285.2,667.2,284.1,666,282.8,665.8z"/>
			<path d="M260.6,663.2l-3.3-0.4c-1.3-0.1-2.3,0.8-2.3,2.1v12.9c0,1.3,1,2.2,2.3,2.1l3.3-0.4V663.2z"/>
		</g>
	</g>
</g>
</svg>
