<?xml version="1.0" encoding="utf-8"?>
<!-- Generator: Adobe Illustrator 25.4.1, SVG Export Plug-In . SVG Version: 6.00 Build 0)  -->
<svg version="1.1" xmlns="http://www.w3.org/2000/svg" xmlns:xlink="http://www.w3.org/1999/xlink" x="0px" y="0px"
	 viewBox="0 0 30 30" style="enable-background:new 0 0 30 30;" xml:space="preserve">
<style type="text/css">
	.st0{fill:#344256;}
</style>
<g id="Layer_1">
</g>
<g id="icons">
	<g id="fog">
		<path class="st0" d="M23.7,9.4H6.3C5.8,9.4,5.5,9,5.5,8.6c0-0.4,0.3-0.8,0.8-0.8h17.5c0.4,0,0.8,0.3,0.8,0.8
			C24.5,9,24.2,9.4,23.7,9.4z"/>
		<path class="st0" d="M28.1,13.8H1.9c-0.5,0-0.9-0.4-0.9-0.9c0-0.5,0.4-0.9,0.9-0.9h26.1c0.5,0,0.9,0.4,0.9,0.9
			C29,13.4,28.6,13.8,28.1,13.8z"/>
		<path class="st0" d="M26.9,18H3.1c-0.5,0-0.9-0.4-0.9-0.9c0-0.5,0.4-0.9,0.9-0.9h23.7c0.5,0,0.9,0.4,0.9,0.9
			C27.7,17.6,27.4,18,26.9,18z"/>
		<path class="st0" d="M23.7,22.2H6.3c-0.4,0-0.8-0.3-0.8-0.8c0-0.4,0.3-0.8,0.8-0.8h17.5c0.4,0,0.8,0.3,0.8,0.8
			C24.5,21.8,24.2,22.2,23.7,22.2z"/>
	</g>
</g>
</svg>
