<?xml version="1.0" encoding="utf-8"?>
<!-- Generator: Adobe Illustrator 25.4.1, SVG Export Plug-In . SVG Version: 6.00 Build 0)  -->
<svg version="1.1" xmlns="http://www.w3.org/2000/svg" xmlns:xlink="http://www.w3.org/1999/xlink" x="0px" y="0px"
	 viewBox="0 0 30 30" style="enable-background:new 0 0 30 30;" xml:space="preserve">
<style type="text/css">
	.st0{fill:#344256;}
</style>
<g id="Layer_1">
</g>
<g id="icons">
	<g id="sunny_with_rain_clouds">
		<g>
			<g>
				<path class="st0" d="M18.2,2.7c-0.5,0-0.8,0.4-0.8,0.8l0,2.2c0,0.5,0.4,0.8,0.8,0.8c0.5,0,0.8-0.4,0.8-0.8l0-2.2
					C19,3.1,18.7,2.7,18.2,2.7z"/>
				<path class="st0" d="M18.3,24.2c0.5,0,0.8-0.4,0.8-0.8l0-2.2c0-0.5-0.4-0.8-0.8-0.8c-0.5,0-0.8,0.4-0.8,0.8l0,2.2
					C17.5,23.9,17.8,24.2,18.3,24.2z"/>
				<path class="st0" d="M29,13.4c0-0.5-0.4-0.8-0.8-0.8l-2.2,0c-0.5,0-0.8,0.4-0.8,0.8c0,0.5,0.4,0.8,0.8,0.8l2.2,0
					C28.6,14.3,29,13.9,29,13.4z"/>
				<path class="st0" d="M25.9,21.1c0.3-0.3,0.3-0.9,0-1.2l-1.6-1.6c-0.3-0.3-0.9-0.3-1.2,0c-0.3,0.3-0.3,0.9,0,1.2l1.6,1.6
					C25,21.4,25.6,21.4,25.9,21.1z"/>
				<path class="st0" d="M25.8,5.9c-0.3-0.3-0.9-0.3-1.2,0l-1.6,1.6c-0.3,0.3-0.3,0.9,0,1.2c0.3,0.3,0.9,0.3,1.2,0L25.8,7
					C26.2,6.7,26.1,6.2,25.8,5.9z"/>
			</g>
			<path class="st0" d="M18.2,18.5c2.8,0,5-2.2,5-5c0-2.8-2.2-5-5-5c-0.4,0-0.8,0-1.1,0.1c-0.7-2.3-2.8-4-5.4-4
				c-3.1,0-5.6,2.5-5.6,5.6c0,0.1,0,0.2,0,0.3c-0.3-0.1-0.7-0.1-1.1-0.1c-2.2,0-4,1.8-4,4c0,2.2,1.8,4,4,4H18.2z"/>
		</g>
		<path class="st0" d="M8.9,23.8C8,24.5,8.2,26,9.1,26.7c0.9,0.7,2.4,0.8,2.9-0.2c0.7-1.2,1.8-5.3,1.8-5.3S10,22.9,8.9,23.8z"/>
	</g>
</g>
</svg>
