<?xml version="1.0" encoding="utf-8"?>
<!-- Generator: Adobe Illustrator 25.4.1, SVG Export Plug-In . SVG Version: 6.00 Build 0)  -->
<svg version="1.1" xmlns="http://www.w3.org/2000/svg" xmlns:xlink="http://www.w3.org/1999/xlink" x="0px" y="0px"
	 viewBox="0 0 30 30" style="enable-background:new 0 0 30 30;" xml:space="preserve">
<style type="text/css">
	.st0{fill:#344256;}
</style>
<g id="Layer_1">
</g>
<g id="icons">
	<g id="suny_with_clouds">
		<g>
			<path class="st0" d="M18.2,4.2c-0.5,0-0.8,0.4-0.8,0.8l0,2.2c0,0.5,0.4,0.8,0.8,0.8c0.5,0,0.8-0.4,0.8-0.8l0-2.2
				C19,4.6,18.7,4.2,18.2,4.2z"/>
			<path class="st0" d="M18.3,25.8c0.5,0,0.8-0.4,0.8-0.8l0-2.2c0-0.5-0.4-0.8-0.8-0.8c-0.5,0-0.8,0.4-0.8,0.8l0,2.2
				C17.5,25.4,17.8,25.8,18.3,25.8z"/>
			<path class="st0" d="M29,15c0-0.5-0.4-0.8-0.8-0.8l-2.2,0c-0.5,0-0.8,0.4-0.8,0.8c0,0.5,0.4,0.8,0.8,0.8l2.2,0
				C28.6,15.8,29,15.4,29,15z"/>
			<path class="st0" d="M25.9,22.6c0.3-0.3,0.3-0.9,0-1.2l-1.6-1.6c-0.3-0.3-0.9-0.3-1.2,0c-0.3,0.3-0.3,0.9,0,1.2l1.6,1.6
				C25,22.9,25.6,22.9,25.9,22.6z"/>
			<path class="st0" d="M25.8,7.4C25.5,7,25,7,24.6,7.4L23.1,9c-0.3,0.3-0.3,0.9,0,1.2c0.3,0.3,0.9,0.3,1.2,0l1.6-1.6
				C26.2,8.2,26.1,7.7,25.8,7.4z"/>
		</g>
		<path class="st0" d="M18.2,20c2.8,0,5-2.2,5-5c0-2.8-2.2-5-5-5c-0.4,0-0.8,0-1.1,0.1c-0.7-2.3-2.8-4-5.4-4c-3.1,0-5.6,2.5-5.6,5.6
			c0,0.1,0,0.2,0,0.3C5.8,12,5.4,11.9,5,11.9c-2.2,0-4,1.8-4,4c0,2.2,1.8,4,4,4H18.2z"/>
	</g>
</g>
</svg>
