<?xml version="1.0" encoding="utf-8"?>
<!-- Generator: Adobe Illustrator 25.4.1, SVG Export Plug-In . SVG Version: 6.00 Build 0)  -->
<svg version="1.1" xmlns="http://www.w3.org/2000/svg" xmlns:xlink="http://www.w3.org/1999/xlink" x="0px" y="0px"
	 viewBox="0 0 30 30" style="enable-background:new 0 0 30 30;" xml:space="preserve">
<style type="text/css">
	.st0{fill:#344256;}
</style>
<g id="Layer_1">
</g>
<g id="icons">
	<g id="suny_with_snow_clouds">
		<g>
			<g>
				<path class="st0" d="M18.2,2.4c-0.5,0-0.8,0.4-0.8,0.8l0,2.2c0,0.5,0.4,0.8,0.8,0.8c0.5,0,0.8-0.4,0.8-0.8l0-2.2
					C19,2.8,18.7,2.4,18.2,2.4z"/>
				<path class="st0" d="M18.3,24c0.5,0,0.8-0.4,0.8-0.8l0-2.2c0-0.5-0.4-0.8-0.8-0.8c-0.5,0-0.8,0.4-0.8,0.8l0,2.2
					C17.5,23.6,17.8,24,18.3,24z"/>
				<path class="st0" d="M29,13.2c0-0.5-0.4-0.8-0.8-0.8l-2.2,0c-0.5,0-0.8,0.4-0.8,0.8c0,0.5,0.4,0.8,0.8,0.8l2.2,0
					C28.6,14,29,13.6,29,13.2z"/>
				<path class="st0" d="M25.9,20.8c0.3-0.3,0.3-0.9,0-1.2L24.3,18c-0.3-0.3-0.9-0.3-1.2,0c-0.3,0.3-0.3,0.9,0,1.2l1.6,1.6
					C25,21.1,25.6,21.1,25.9,20.8z"/>
				<path class="st0" d="M25.8,5.6c-0.3-0.3-0.9-0.3-1.2,0l-1.6,1.6c-0.3,0.3-0.3,0.9,0,1.2c0.3,0.3,0.9,0.3,1.2,0l1.6-1.6
					C26.2,6.4,26.1,5.9,25.8,5.6z"/>
			</g>
			<path class="st0" d="M18.2,18.2c2.8,0,5-2.2,5-5c0-2.8-2.2-5-5-5c-0.4,0-0.8,0-1.1,0.1c-0.7-2.3-2.8-4-5.4-4
				c-3.1,0-5.6,2.5-5.6,5.6c0,0.1,0,0.2,0,0.3c-0.3-0.1-0.7-0.1-1.1-0.1c-2.2,0-4,1.8-4,4c0,2.2,1.8,4,4,4H18.2z"/>
		</g>
		<path class="st0" d="M15.1,23.3h-1.5l1.1-1.1c0.2-0.2,0.2-0.6,0-0.9c-0.2-0.2-0.6-0.2-0.9,0l-1.1,1.1V21c0-0.3-0.3-0.6-0.6-0.6
			c-0.3,0-0.6,0.3-0.6,0.6v1.5l-1.1-1.1c-0.2-0.2-0.6-0.2-0.9,0c-0.2,0.2-0.2,0.6,0,0.9l1.1,1.1H9.1c-0.3,0-0.6,0.3-0.6,0.6
			c0,0.3,0.3,0.6,0.6,0.6h1.5l-1.1,1.1c-0.2,0.2-0.2,0.6,0,0.9c0.2,0.2,0.6,0.2,0.9,0l1.1-1.1v1.5c0,0.3,0.3,0.6,0.6,0.6
			c0.3,0,0.6-0.3,0.6-0.6v-1.5l1.1,1.1c0.2,0.2,0.6,0.2,0.9,0c0.2-0.2,0.2-0.6,0-0.9l-1.1-1.1h1.5c0.3,0,0.6-0.3,0.6-0.6
			C15.7,23.6,15.4,23.3,15.1,23.3z"/>
	</g>
</g>
</svg>
