<?xml version="1.0" encoding="utf-8"?>
<!-- Generator: Adobe Illustrator 25.4.1, SVG Export Plug-In . SVG Version: 6.00 Build 0)  -->
<svg version="1.1" xmlns="http://www.w3.org/2000/svg" xmlns:xlink="http://www.w3.org/1999/xlink" x="0px" y="0px"
	 viewBox="0 0 30 30" style="enable-background:new 0 0 30 30;" xml:space="preserve">
<style type="text/css">
	.st0{fill:#344256;}
</style>
<g id="Layer_1">
</g>
<g id="icons">
	<g id="sun_and_flashing">
		<g>
			<g>
				<path class="st0" d="M18.1,1c-0.4,0-0.8,0.4-0.8,0.8l0,2.2c0,0.4,0.4,0.8,0.8,0.8c0.4,0,0.8-0.4,0.8-0.8l0-2.2
					C18.9,1.4,18.6,1,18.1,1z"/>
				<path class="st0" d="M18.2,22c0.4,0,0.8-0.4,0.8-0.8l0-2.2c0-0.4-0.4-0.8-0.8-0.8c-0.4,0-0.8,0.4-0.8,0.8l0,2.2
					C17.4,21.6,17.8,22,18.2,22z"/>
				<path class="st0" d="M28.6,11.4c0-0.4-0.4-0.8-0.8-0.8l-2.2,0c-0.4,0-0.8,0.4-0.8,0.8c0,0.4,0.4,0.8,0.8,0.8l2.2,0
					C28.3,12.3,28.7,11.9,28.6,11.4z"/>
				<path class="st0" d="M25.6,18.9c0.3-0.3,0.3-0.8,0-1.1l-1.6-1.5c-0.3-0.3-0.8-0.3-1.1,0c-0.3,0.3-0.3,0.8,0,1.1l1.6,1.5
					C24.8,19.2,25.3,19.2,25.6,18.9z"/>
				<path class="st0" d="M25.6,4c-0.3-0.3-0.8-0.3-1.1,0l-1.5,1.6c-0.3,0.3-0.3,0.8,0,1.1c0.3,0.3,0.8,0.3,1.1,0l1.5-1.6
					C25.9,4.9,25.9,4.4,25.6,4z"/>
			</g>
			<path class="st0" d="M18.1,16.4c2.7,0,4.9-2.2,4.9-4.9c0-2.7-2.2-4.9-4.9-4.9c-0.4,0-0.7,0-1.1,0.1c-0.7-2.3-2.8-3.9-5.2-3.9
				c-3,0-5.5,2.5-5.5,5.5c0,0.1,0,0.2,0,0.3C6,8.6,5.6,8.5,5.3,8.5c-2.2,0-3.9,1.8-3.9,3.9c0,2.2,1.8,3.9,3.9,3.9H18.1z"/>
		</g>
		<polygon class="st0" points="9.9,18.2 14.1,18.2 12,22.2 15.4,22.2 9.6,29 10.9,24.9 7.1,24.9 		"/>
	</g>
</g>
</svg>
