<?xml version="1.0" encoding="utf-8"?>
<!-- Generator: Adobe Illustrator 25.4.1, SVG Export Plug-In . SVG Version: 6.00 Build 0)  -->
<svg version="1.1" xmlns="http://www.w3.org/2000/svg" xmlns:xlink="http://www.w3.org/1999/xlink" x="0px" y="0px"
	 viewBox="0 0 30 30" style="enable-background:new 0 0 30 30;" xml:space="preserve">
<style type="text/css">
	.st0{fill:#344256;}
</style>
<g id="Layer_1">
</g>
<g id="icons">
	<g id="night_cloudi">
		<path class="st0" d="M16.7,22.6c2.5,0,4.6-2,4.6-4.6c0-2.5-2-4.6-4.6-4.6c-0.4,0-0.7,0-1,0.1c-0.6-2.1-2.6-3.6-4.9-3.6
			c-2.8,0-5.1,2.3-5.1,5.1c0,0.1,0,0.2,0,0.3c-0.3-0.1-0.6-0.1-1-0.1c-2,0-3.7,1.6-3.7,3.7c0,2,1.6,3.7,3.7,3.7H16.7z"/>
		<path class="st0" d="M27.5,16.9c-3.5,0-6.4-2.9-6.4-6.4c0-1.1,0.3-2.1,0.8-3c-2.5,0.6-4.5,2.7-4.9,5.4c2.7,0.2,4.9,2.4,4.9,5.2
			c0,0.7-0.1,1.3-0.4,1.9c0.6,0.2,1.2,0.3,1.8,0.3c2.5,0,4.6-1.4,5.7-3.4C28.5,16.8,28,16.9,27.5,16.9z"/>
	</g>
</g>
</svg>
