<?xml version="1.0" encoding="utf-8"?>
<!-- Generator: Adobe Illustrator 25.4.1, SVG Export Plug-In . SVG Version: 6.00 Build 0)  -->
<svg version="1.1" xmlns="http://www.w3.org/2000/svg" xmlns:xlink="http://www.w3.org/1999/xlink" x="0px" y="0px"
	 viewBox="0 0 30 30" style="enable-background:new 0 0 30 30;" xml:space="preserve">
<style type="text/css">
	.st0{fill:#344256;}
</style>
<g id="Layer_1">
</g>
<g id="icons">
	<g id="sun_and_snow">
		<g>
			<g>
				<path class="st0" d="M18.2,3.1c-0.5,0-0.8,0.4-0.8,0.8l0,2.2c0,0.5,0.4,0.8,0.8,0.8c0.5,0,0.8-0.4,0.8-0.8l0-2.2
					C19,3.5,18.7,3.1,18.2,3.1z"/>
				<path class="st0" d="M29,13.8c0-0.5-0.4-0.8-0.8-0.8l-2.2,0c-0.5,0-0.8,0.4-0.8,0.8c0,0.5,0.4,0.8,0.8,0.8l2.2,0
					C28.6,14.6,29,14.3,29,13.8z"/>
				<path class="st0" d="M25.9,21.4c0.3-0.3,0.3-0.9,0-1.2l-1.6-1.6c-0.3-0.3-0.9-0.3-1.2,0c-0.3,0.3-0.3,0.9,0,1.2l1.6,1.6
					C25,21.7,25.6,21.7,25.9,21.4z"/>
				<path class="st0" d="M25.8,6.2c-0.3-0.3-0.9-0.3-1.2,0l-1.6,1.6c-0.3,0.3-0.3,0.9,0,1.2c0.3,0.3,0.9,0.3,1.2,0l1.6-1.6
					C26.2,7.1,26.1,6.5,25.8,6.2z"/>
			</g>
			<path class="st0" d="M18.2,18.8c2.8,0,5-2.2,5-5c0-2.8-2.2-5-5-5c-0.4,0-0.8,0-1.1,0.1c-0.7-2.3-2.8-4-5.4-4
				c-3.1,0-5.6,2.5-5.6,5.6c0,0.1,0,0.2,0,0.3c-0.3-0.1-0.7-0.1-1.1-0.1c-2.2,0-4,1.8-4,4c0,2.2,1.8,4,4,4H18.2z"/>
		</g>
		<g>
			<path class="st0" d="M10.6,23.1H9.2l1-1c0.2-0.2,0.2-0.6,0-0.8c-0.2-0.2-0.6-0.2-0.8,0l-1,1V21c0-0.3-0.2-0.5-0.5-0.5
				c-0.3,0-0.5,0.2-0.5,0.5v1.4l-1-1c-0.2-0.2-0.6-0.2-0.8,0c-0.2,0.2-0.2,0.6,0,0.8l1,1H5.2c-0.3,0-0.5,0.2-0.5,0.5
				c0,0.3,0.2,0.5,0.5,0.5h1.4l-1,1c-0.2,0.2-0.2,0.6,0,0.8c0.2,0.2,0.6,0.2,0.8,0l1-1v1.4c0,0.3,0.2,0.5,0.5,0.5
				c0.3,0,0.5-0.2,0.5-0.5V25l1,1c0.2,0.2,0.6,0.2,0.8,0c0.2-0.2,0.2-0.6,0-0.8l-1-1h1.4c0.3,0,0.5-0.2,0.5-0.5
				C11.1,23.4,10.9,23.1,10.6,23.1z"/>
			<path class="st0" d="M19.6,23.1h-1.4l1-1c0.2-0.2,0.2-0.6,0-0.8c-0.2-0.2-0.6-0.2-0.8,0l-1,1V21c0-0.3-0.2-0.5-0.5-0.5
				c-0.3,0-0.5,0.2-0.5,0.5v1.4l-1-1c-0.2-0.2-0.6-0.2-0.8,0c-0.2,0.2-0.2,0.6,0,0.8l1,1h-1.4c-0.3,0-0.5,0.2-0.5,0.5
				c0,0.3,0.2,0.5,0.5,0.5h1.4l-1,1c-0.2,0.2-0.2,0.6,0,0.8c0.2,0.2,0.6,0.2,0.8,0l1-1v1.4c0,0.3,0.2,0.5,0.5,0.5
				c0.3,0,0.5-0.2,0.5-0.5V25l1,1c0.2,0.2,0.6,0.2,0.8,0c0.2-0.2,0.2-0.6,0-0.8l-1-1h1.4c0.3,0,0.5-0.2,0.5-0.5
				C20.1,23.4,19.9,23.1,19.6,23.1z"/>
		</g>
	</g>
</g>
</svg>
