<?xml version="1.0" encoding="utf-8"?>
<!-- Generator: Adobe Illustrator 27.0.1, SVG Export Plug-In . SVG Version: 6.00 Build 0)  -->
<svg version="1.1" xmlns="http://www.w3.org/2000/svg" xmlns:xlink="http://www.w3.org/1999/xlink" x="0px" y="0px"
	 viewBox="0 0 30 30" style="enable-background:new 0 0 30 30;" xml:space="preserve">
<style type="text/css">
	.st0{fill:#344256;}
</style>
<g id="Layer_1">
	<g>
		<path class="st0" d="M6.5,22.3c-0.6,0.5-0.5,1.6,0.2,2.1C7.3,25,8.4,25,8.8,24.2c0.5-0.9,1.4-4,1.4-4S7.2,21.7,6.5,22.3z"/>
		<path class="st0" d="M11,22.3c-0.6,0.5-0.5,1.6,0.2,2.1c0.6,0.5,1.7,0.5,2.1-0.2c0.5-0.9,1.4-4,1.4-4S11.8,21.7,11,22.3z"/>
		<path class="st0" d="M15.6,22.3c-0.6,0.5-0.5,1.6,0.2,2.1c0.6,0.5,1.7,0.5,2.1-0.2c0.5-0.9,1.4-4,1.4-4S16.4,21.7,15.6,22.3z"/>
		<path class="st0" d="M20.2,22.3c-0.6,0.5-0.5,1.6,0.2,2.1c0.6,0.5,1.7,0.5,2.1-0.2c0.5-0.9,1.4-4,1.4-4S21,21.7,20.2,22.3z"/>
	</g>
	<g>
		<path class="st0" d="M11.4,27.7c-0.6,0.4-0.4,1.5,0.1,1.9c0.5,0.5,1.6,0.5,1.9-0.1c0.4-0.9,1.2-3.5,1.2-3.5S12.2,27.1,11.4,27.7z"
			/>
		<path class="st0" d="M15.6,27.7c-0.6,0.4-0.4,1.5,0.1,1.9c0.5,0.5,1.6,0.5,1.9-0.1c0.4-0.9,1.2-3.5,1.2-3.5S16.3,27.1,15.6,27.7z"
			/>
	</g>
	<g>
		<path class="st0" d="M11.9,6.1c-0.7,0-1,0.8-1,1.7c0,1,0.3,1.7,1,1.7c0.6,0,0.9-0.6,0.9-1.7C12.8,6.8,12.6,6.1,11.9,6.1z"/>
		<path class="st0" d="M18.7,10c-0.7,0-1,0.8-1,1.7c0,1,0.3,1.7,1,1.7s0.9-0.6,0.9-1.7C19.7,10.8,19.4,10,18.7,10z"/>
		<path class="st0" d="M22.5,4.6c-0.4,0-1,0.1-1.4,0.2C20.2,2,17.5,0,14.4,0c-3.8,0-6.9,3.1-6.9,6.9c0,0.1,0,0.3,0,0.4
			C7.1,7.2,6.7,7.2,6.3,7.2c-2.8,0-4.9,2.3-4.9,4.9c0,2.7,2.3,4.9,4.9,4.9h16.2c3.4,0,6.2-2.8,6.2-6.2C28.7,7.4,25.9,4.6,22.5,4.6z
			 M9.2,7.8c0-1.7,1-3,2.7-3c1.6,0,2.5,1.2,2.5,2.8c0,2-1.3,3-2.6,3C10.4,10.7,9.2,9.6,9.2,7.8z M11.9,14.7l5.5-9.8h1.2l-5.5,9.8
			H11.9z M18.7,14.7c-1.4,0-2.6-1.1-2.6-2.9c0-1.7,1-3,2.7-3c1.6,0,2.5,1.2,2.5,2.8C21.3,13.6,20.1,14.7,18.7,14.7z"/>
	</g>
</g>
<g id="Capa_1">
</g>
</svg>
