<?xml version="1.0" encoding="utf-8"?>
<!-- Generator: Adobe Illustrator 25.4.1, SVG Export Plug-In . SVG Version: 6.00 Build 0)  -->
<svg version="1.1" xmlns="http://www.w3.org/2000/svg" xmlns:xlink="http://www.w3.org/1999/xlink" x="0px" y="0px"
	 viewBox="0 0 30 30" style="enable-background:new 0 0 30 30;" xml:space="preserve">
<style type="text/css">
	.st0{fill:#344256;}
</style>
<g id="Layer_1">
</g>
<g id="icons">
	<g id="raini_1_">
		<path class="st0" d="M22.3,17.7c3.3,0,6-2.7,6-6c0-3.3-2.7-6-6-6c-0.5,0-0.9,0.1-1.4,0.2C20.1,3,17.6,1,14.5,1
			c-3.7,0-6.8,3-6.8,6.8c0,0.1,0,0.3,0,0.4C7.4,8.1,6.9,8,6.5,8c-2.7,0-4.9,2.2-4.9,4.9s2.2,4.9,4.9,4.9H22.3z"/>
		<path class="st0" d="M11.1,24.8c-1.1,0.9-0.8,2.6,0.3,3.5c1,0.9,2.8,0.9,3.5-0.3c0.8-1.5,2.2-6.4,2.2-6.4S12.5,23.8,11.1,24.8z"/>
	</g>
</g>
</svg>
