<?xml version="1.0" encoding="utf-8"?>
<!-- Generator: Adobe Illustrator 25.4.1, SVG Export Plug-In . SVG Version: 6.00 Build 0)  -->
<svg version="1.1" xmlns="http://www.w3.org/2000/svg" xmlns:xlink="http://www.w3.org/1999/xlink" x="0px" y="0px"
	 viewBox="0 0 30 30" style="enable-background:new 0 0 30 30;" xml:space="preserve">
<style type="text/css">
	.st0{fill:#344256;}
</style>
<g id="Layer_1">
</g>
<g id="icons">
	<g id="rain_with_flashing">
		<path class="st0" d="M21.3,15.2c2.8,0,5.1-2.3,5.1-5.1c0-2.8-2.3-5.1-5.1-5.1c-0.4,0-0.8,0-1.2,0.1C19.4,2.7,17.2,1,14.6,1
			c-3.2,0-5.8,2.6-5.8,5.8c0,0.1,0,0.2,0,0.3C8.5,7,8.1,7,7.7,7c-2.3,0-4.1,1.9-4.1,4.1s1.9,4.1,4.1,4.1H21.3z"/>
		<g>
			<path class="st0" d="M7.9,20.7c-0.9,0.7-0.7,2.2,0.2,3c0.9,0.8,2.4,0.8,3-0.2c0.7-1.2,1.9-5.4,1.9-5.4S9.1,19.8,7.9,20.7z"/>
			<polygon class="st0" points="16.9,17.6 21.3,17.6 19.1,21.8 22.6,21.8 16.5,29 18,24.6 13.9,24.6 			"/>
		</g>
	</g>
</g>
</svg>
