<?xml version="1.0" encoding="utf-8"?>
<!-- Generator: Adobe Illustrator 25.4.1, SVG Export Plug-In . SVG Version: 6.00 Build 0)  -->
<svg version="1.1" xmlns="http://www.w3.org/2000/svg" xmlns:xlink="http://www.w3.org/1999/xlink" x="0px" y="0px"
	 viewBox="0 0 30 30" style="enable-background:new 0 0 30 30;" xml:space="preserve">
<style type="text/css">
	.st0{fill:#344256;}
</style>
<g id="Layer_1">
</g>
<g id="icons">
	<g id="soft_rain">
		<path class="st0" d="M22.5,18.1c3.4,0,6.2-2.8,6.2-6.2c0-3.4-2.8-6.2-6.2-6.2c-0.5,0-0.9,0.1-1.4,0.2C20.3,3.1,17.6,1,14.5,1
			c-3.8,0-6.9,3.1-6.9,6.9c0,0.1,0,0.3,0,0.4C7.2,8.2,6.7,8.2,6.3,8.2c-2.7,0-5,2.2-5,5c0,2.7,2.2,5,5,5H22.5z"/>
		<path class="st0" d="M6.2,24.7c-1.1,0.9-0.8,2.7,0.3,3.6c1.1,0.9,2.9,1,3.6-0.3c0.9-1.5,2.2-6.5,2.2-6.5S7.6,23.6,6.2,24.7z"/>
		<path class="st0" d="M16.3,24.7c-1.1,0.9-0.8,2.7,0.3,3.6c1.1,0.9,2.9,1,3.6-0.3c0.9-1.5,2.2-6.5,2.2-6.5S17.7,23.6,16.3,24.7z"/>
	</g>
</g>
</svg>
