<?xml version="1.0" encoding="utf-8"?>
<!-- Generator: Adobe Illustrator 25.4.1, SVG Export Plug-In . SVG Version: 6.00 Build 0)  -->
<svg version="1.1" xmlns="http://www.w3.org/2000/svg" xmlns:xlink="http://www.w3.org/1999/xlink" x="0px" y="0px"
	 viewBox="0 0 30 30" style="enable-background:new 0 0 30 30;" xml:space="preserve">
<style type="text/css">
	.st0{fill:#344256;}
</style>
<g id="Layer_1">
</g>
<g id="icons">
	<g id="snowy">
		<path class="st0" d="M22.3,17.6c3.3,0,6-2.7,6-6c0-3.3-2.7-6-6-6c-0.5,0-0.9,0.1-1.4,0.2C20.1,3,17.5,1,14.5,1
			c-3.7,0-6.7,3-6.7,6.7c0,0.1,0,0.3,0,0.4C7.4,8,7,7.9,6.6,7.9c-2.7,0-4.8,2.2-4.8,4.8s2.2,4.8,4.8,4.8H22.3z"/>
		<path class="st0" d="M18.6,24h-1.8l1.3-1.3c0.3-0.3,0.3-0.7,0-1c-0.3-0.3-0.7-0.3-1,0l-1.3,1.3v-1.8c0-0.4-0.3-0.7-0.7-0.7
			c-0.4,0-0.7,0.3-0.7,0.7v1.8L13,21.7c-0.3-0.3-0.7-0.3-1,0c-0.3,0.3-0.3,0.7,0,1l1.3,1.3h-1.8c-0.4,0-0.7,0.3-0.7,0.7
			c0,0.4,0.3,0.7,0.7,0.7h1.8L12,26.7c-0.3,0.3-0.3,0.7,0,1c0.3,0.3,0.7,0.3,1,0l1.3-1.3v1.8c0,0.4,0.3,0.7,0.7,0.7
			c0.4,0,0.7-0.3,0.7-0.7v-1.8l1.3,1.3c0.3,0.3,0.7,0.3,1,0c0.3-0.3,0.3-0.7,0-1l-1.3-1.3h1.8c0.4,0,0.7-0.3,0.7-0.7
			C19.3,24.3,19,24,18.6,24z"/>
	</g>
</g>
</svg>
