<?xml version="1.0" encoding="utf-8"?>
<!-- Generator: Adobe Illustrator 25.4.1, SVG Export Plug-In . SVG Version: 6.00 Build 0)  -->
<svg version="1.1" xmlns="http://www.w3.org/2000/svg" xmlns:xlink="http://www.w3.org/1999/xlink" x="0px" y="0px"
	 viewBox="0 0 30 30" style="enable-background:new 0 0 30 30;" xml:space="preserve">
<style type="text/css">
	.st0{fill:#344256;}
</style>
<g id="Layer_1">
</g>
<g id="icons">
	<g id="sun">
		<path class="st0" d="M21.9,14c0.6,3.8-2.1,7.3-5.9,7.9c-3.8,0.6-7.3-2.1-7.9-5.9c-0.6-3.8,2.1-7.3,5.9-7.9
			C17.8,7.6,21.3,10.2,21.9,14z"/>
		<g>
			<g>
				<path class="st0" d="M14.9,1c-0.6,0-1.1,0.5-1.1,1.1l0,2.9c0,0.6,0.5,1.1,1.1,1.1C15.6,6.1,16,5.6,16,5l0-2.9
					C16,1.5,15.5,1,14.9,1z"/>
				<path class="st0" d="M15.1,29c0.6,0,1.1-0.5,1.1-1.1l0-2.9c0-0.6-0.5-1.1-1.1-1.1c-0.6,0-1.1,0.5-1.1,1.1l0,2.9
					C14,28.5,14.5,29,15.1,29z"/>
			</g>
			<g>
				<path class="st0" d="M1,15.1c0,0.6,0.5,1.1,1.1,1.1l2.9,0c0.6,0,1.1-0.5,1.1-1.1C6.1,14.4,5.6,14,5,14l-2.9,0
					C1.5,14,1,14.5,1,15.1z"/>
				<path class="st0" d="M29,14.9c0-0.6-0.5-1.1-1.1-1.1l-2.9,0c-0.6,0-1.1,0.5-1.1,1.1c0,0.6,0.5,1.1,1.1,1.1l2.9,0
					C28.5,16,29,15.5,29,14.9z"/>
			</g>
		</g>
		<g>
			<g>
				<path class="st0" d="M5.1,5.1c-0.4,0.4-0.4,1.1,0,1.5l2.1,2.1c0.4,0.4,1.1,0.4,1.5,0c0.4-0.4,0.4-1.1,0-1.5L6.6,5.1
					C6.2,4.7,5.5,4.7,5.1,5.1z"/>
				<path class="st0" d="M24.9,24.9c0.4-0.4,0.4-1.1,0-1.5l-2.1-2.1c-0.4-0.4-1.1-0.4-1.5,0c-0.4,0.4-0.4,1.1,0,1.5l2.1,2.1
					C23.8,25.3,24.5,25.3,24.9,24.9z"/>
			</g>
			<g>
				<path class="st0" d="M5.1,24.9c0.4,0.4,1.1,0.4,1.5,0l2.1-2.1c0.4-0.4,0.4-1.1,0-1.5c-0.4-0.4-1.1-0.4-1.5,0l-2.1,2.1
					C4.7,23.8,4.7,24.5,5.1,24.9z"/>
				<path class="st0" d="M24.9,5.1c-0.4-0.4-1.1-0.4-1.5,0l-2.1,2.1c-0.4,0.4-0.4,1.1,0,1.5c0.4,0.4,1.1,0.4,1.5,0l2.1-2.1
					C25.3,6.2,25.3,5.5,24.9,5.1z"/>
			</g>
		</g>
	</g>
</g>
</svg>
