<?xml version="1.0" encoding="utf-8"?>
<!-- Generator: Adobe Illustrator 25.4.1, SVG Export Plug-In . SVG Version: 6.00 Build 0)  -->
<svg version="1.1" xmlns="http://www.w3.org/2000/svg" xmlns:xlink="http://www.w3.org/1999/xlink" x="0px" y="0px"
	 viewBox="0 0 30 30" style="enable-background:new 0 0 30 30;" xml:space="preserve">
<style type="text/css">
	.st0{fill:#344256;}
</style>
<g id="Layer_1">
</g>
<g id="icons">
	<g id="temperature">
		<path class="st0" d="M15,11.4c-0.9,0-1.6,0.7-1.6,1.6v5.7l-0.2,0.2c-0.8,0.6-1.2,1.5-1.2,2.4c0,1.7,1.4,3,3,3c1.7,0,3-1.4,3-3
			c0-1-0.4-1.8-1.2-2.4l-0.2-0.2V13C16.6,12.2,15.9,11.4,15,11.4z"/>
		<path class="st0" d="M15,29c-4.3,0-7.7-3.5-7.7-7.7c0-2.3,1-4.4,2.7-5.8V6.1C9.9,3.3,12.2,1,15,1c2.8,0,5.1,2.3,5.1,5.1v9.3
			c1.7,1.5,2.7,3.6,2.7,5.8C22.7,25.5,19.3,29,15,29z M15,3.2c-1.6,0-2.9,1.3-2.9,2.9v10.4l-0.4,0.3c-1.4,1.1-2.2,2.7-2.2,4.5
			c0,3.1,2.5,5.6,5.6,5.6c3.1,0,5.6-2.5,5.6-5.6c0-1.8-0.8-3.4-2.2-4.5l-0.4-0.3V6.1C17.9,4.5,16.6,3.2,15,3.2z"/>
		<g>
			<rect x="19.7" y="6.8" class="st0" width="0.9" height="1.5"/>
			<rect x="19.7" y="9.9" class="st0" width="0.9" height="1.5"/>
			<rect x="19.7" y="13" class="st0" width="0.9" height="1.5"/>
		</g>
	</g>
</g>
</svg>
