<?xml version="1.0" encoding="utf-8"?>
<!-- Generator: Adobe Illustrator 25.4.1, SVG Export Plug-In . SVG Version: 6.00 Build 0)  -->
<svg version="1.1" xmlns="http://www.w3.org/2000/svg" xmlns:xlink="http://www.w3.org/1999/xlink" x="0px" y="0px"
	 viewBox="0 0 30 30" style="enable-background:new 0 0 30 30;" xml:space="preserve">
<style type="text/css">
	.st0{fill:#344256;}
</style>
<g id="Layer_1">
</g>
<g id="icons">
	<g id="wind">
		<path class="st0" d="M2.6,29c-0.5,0-1-0.4-1-1V2c0-0.5,0.4-1,1-1c0.5,0,1,0.4,1,1V28C3.5,28.6,3.1,29,2.6,29z"/>
		<g>
			<polygon class="st0" points="15.3,13.9 19,13.5 19,3.4 15.3,3 			"/>
			<path class="st0" d="M26.7,4.3L24.2,4v8.8l2.4-0.3c1-0.1,1.7-1,1.7-1.9V6.3C28.4,5.3,27.6,4.4,26.7,4.3z"/>
			<path class="st0" d="M10,2.4L7.6,2.1C6.6,2,5.8,2.7,5.8,3.6v9.6c0,1,0.8,1.7,1.7,1.5l2.5-0.3V2.4z"/>
		</g>
	</g>
</g>
</svg>
