<?xml version="1.0" encoding="utf-8"?>
<!-- Generator: Adobe Illustrator 25.4.1, SVG Export Plug-In . SVG Version: 6.00 Build 0)  -->
<svg version="1.1" id="Layer_1" xmlns="http://www.w3.org/2000/svg" xmlns:xlink="http://www.w3.org/1999/xlink" x="0px" y="0px"
	 viewBox="0 0 100 14.7" style="enable-background:new 0 0 100 14.7;" xml:space="preserve">
<style type="text/css">
	.st0{fill:#344256;}
</style>
<g>
	<path class="st0" d="M0,14.6v-0.4l0.3-0.1C0.8,14,1,13.6,1,13.1V2.3C1,2,1,1.8,0.9,1.7S0.6,1.4,0.3,1.4L0,1.3V0.9L3.7,0l0.3,0.2
		L3.9,3.1v10c0,0.6,0.2,0.9,0.7,1l0.3,0.1v0.4H0z M7.7,14.6L3.9,9.4L7.6,6c0.2-0.2,0.3-0.3,0.3-0.5c0-0.2-0.1-0.3-0.4-0.4L7.2,5V4.6
		h3.3V5L9.9,5.2C9.6,5.2,9.3,5.4,9.1,5.5C8.9,5.6,8.7,5.8,8.4,6.1L6.1,8.2l3.6,4.8c0.2,0.3,0.4,0.5,0.6,0.7c0.2,0.2,0.4,0.3,0.7,0.4
		l0.2,0.1v0.4H7.7z"/>
	<path class="st0" d="M12.1,14.6v-0.4l0.3-0.1c0.5-0.1,0.7-0.5,0.7-1V2.3c0-0.3-0.1-0.5-0.2-0.6c-0.1-0.1-0.3-0.3-0.6-0.3l-0.3-0.1
		V0.9L15.8,0l0.3,0.2L16,3.1v10c0,0.6,0.2,0.9,0.7,1l0.3,0.1v0.4H12.1z M19.8,14.6L16,9.4L19.7,6C19.9,5.8,20,5.7,20,5.5
		c0-0.2-0.1-0.3-0.4-0.4L19.3,5V4.6h3.3V5L22,5.2c-0.3,0.1-0.6,0.2-0.8,0.3c-0.2,0.1-0.4,0.3-0.7,0.6l-2.3,2.1l3.6,4.8
		c0.2,0.3,0.4,0.5,0.6,0.7c0.2,0.2,0.4,0.3,0.7,0.4l0.2,0.1v0.4H19.8z"/>
	<path class="st0" d="M28.4,14.7L25.2,6c-0.1-0.2-0.2-0.4-0.3-0.6c-0.1-0.1-0.3-0.2-0.6-0.3L23.9,5V4.6h5V5l-0.3,0.1
		c-0.5,0.1-0.7,0.5-0.5,1l1.9,5.7l1.8-4.6l-0.3-0.9c-0.1-0.3-0.2-0.5-0.3-0.7c-0.1-0.2-0.3-0.3-0.4-0.4L30.3,5V4.6h4.3V5l-0.3,0.1
		c-0.2,0.1-0.4,0.2-0.4,0.3c0,0.1,0,0.4,0.1,0.6l1.9,5.5l1.9-5.5c0.2-0.5,0-0.9-0.4-1L36.9,5V4.6h2.8V5l-0.5,0.1
		c-0.2,0.1-0.4,0.2-0.5,0.3c-0.1,0.1-0.2,0.3-0.3,0.6l-3,8.6h-1.1L32,8l-2.5,6.6H28.4z"/>
	<path class="st0" d="M45,4.3c0.9,0,1.6,0.2,2.3,0.5c0.6,0.4,1.1,0.9,1.5,1.5c0.3,0.6,0.5,1.4,0.5,2.2c0,0.2,0,0.4,0,0.5
		c0,0.2,0,0.3-0.1,0.4h-6.3c0,1.4,0.3,2.5,0.8,3.1c0.5,0.6,1.3,0.9,2.3,0.9c0.7,0,1.3-0.1,1.7-0.3c0.4-0.2,0.8-0.6,1.2-1l0.3,0.3
		c-0.4,0.8-1,1.4-1.7,1.8c-0.7,0.4-1.6,0.6-2.6,0.6c-1,0-1.9-0.2-2.6-0.6c-0.8-0.4-1.3-1-1.8-1.8c-0.4-0.8-0.6-1.7-0.6-2.8
		c0-1.1,0.2-2.1,0.7-2.9c0.5-0.8,1.1-1.4,1.9-1.8C43.3,4.5,44.2,4.3,45,4.3z M44.9,4.9c-0.4,0-0.8,0.1-1.1,0.3
		c-0.3,0.2-0.5,0.6-0.7,1.2C43,7,42.9,7.8,42.9,8.9h3.7c0.2-1.4,0.1-2.4-0.2-3C46.2,5.2,45.7,4.9,44.9,4.9z"/>
	<path class="st0" d="M53.4,14.9c-0.8,0-1.5-0.2-2-0.7c-0.6-0.5-0.8-1.1-0.8-1.9c0-0.7,0.3-1.3,1-1.8c0.6-0.6,1.7-1,3.1-1.2
		c0.2-0.1,0.5-0.1,0.8-0.2c0.3,0,0.6-0.1,0.9-0.2V7.4c0-0.9-0.1-1.6-0.4-2c-0.2-0.4-0.6-0.5-1.1-0.5h-0.1c-0.3,0-0.6,0.1-0.8,0.3
		c-0.2,0.2-0.3,0.5-0.4,1l-0.1,0.3c0,0.6-0.2,1-0.4,1.2c-0.3,0.3-0.6,0.4-0.9,0.4c-0.3,0-0.6-0.1-0.9-0.3C51.1,7.5,51,7.3,51,6.9
		c0-0.6,0.2-1,0.6-1.4c0.4-0.4,0.9-0.7,1.6-0.9c0.6-0.2,1.4-0.3,2.1-0.3c1.2,0,2.2,0.3,2.8,0.9c0.7,0.6,1,1.6,1,2.9v4.6
		c0,0.6,0.3,0.9,0.9,0.9h0.5l0.2,0.2c-0.3,0.3-0.5,0.6-0.8,0.7c-0.3,0.2-0.7,0.3-1.3,0.3c-0.6,0-1.1-0.1-1.4-0.4
		c-0.4-0.3-0.6-0.7-0.7-1.1c-0.4,0.5-0.9,0.9-1.3,1.1C54.7,14.7,54.1,14.9,53.4,14.9z M54.6,13.6c0.3,0,0.5-0.1,0.8-0.2
		c0.3-0.1,0.6-0.3,0.9-0.6V9.4c-0.4,0.1-0.7,0.1-1.1,0.2c-0.6,0.1-1.1,0.4-1.5,0.8c-0.4,0.4-0.6,0.9-0.6,1.5c0,0.6,0.1,1,0.4,1.2
		C53.9,13.4,54.2,13.6,54.6,13.6z"/>
	<path class="st0" d="M65.2,14.9c-0.9,0-1.5-0.2-2-0.6c-0.5-0.4-0.7-1.1-0.7-2.1c0-0.3,0-0.6,0-0.9s0-0.6,0-1.1V5.3H61V4.8l0.6-0.1
		c0.4-0.1,0.8-0.2,1-0.4c0.3-0.2,0.5-0.4,0.8-0.7l1.4-1.9h0.6l-0.1,2.9h2.4v0.6h-2.4v7.1c0,0.5,0.1,0.9,0.3,1.1
		c0.2,0.2,0.5,0.4,0.8,0.4c0.3,0,0.5-0.1,0.8-0.2s0.4-0.3,0.7-0.5l0.3,0.3c-0.3,0.5-0.6,0.8-1.1,1.1C66.5,14.8,65.9,14.9,65.2,14.9z
		"/>
	<path class="st0" d="M69,14.6v-0.4l0.3-0.1c0.5-0.2,0.8-0.5,0.8-1V2.3c0-0.3,0-0.5-0.1-0.7c-0.1-0.1-0.3-0.3-0.6-0.3L69,1.3V0.9
		L72.5,0l0.3,0.2l-0.1,2.9v2.7c0.5-0.4,1-0.7,1.6-1c0.6-0.3,1.2-0.4,1.9-0.4c0.9,0,1.6,0.3,2.2,0.8c0.5,0.5,0.8,1.3,0.8,2.4v5.6
		c0,0.3,0.1,0.5,0.2,0.7c0.1,0.2,0.3,0.3,0.6,0.4l0.2,0.1v0.4h-4.8v-0.4l0.3-0.1c0.5-0.1,0.8-0.5,0.8-1V7c0-0.6-0.1-1-0.3-1.2
		c-0.2-0.2-0.5-0.3-1-0.3c-0.3,0-0.7,0.1-1.1,0.2c-0.4,0.1-0.8,0.3-1.2,0.6v6.8c0,0.3,0.1,0.5,0.2,0.7s0.3,0.3,0.6,0.4l0.2,0.1v0.4
		H69z"/>
	<path class="st0" d="M86.1,4.3c0.9,0,1.6,0.2,2.3,0.5s1.1,0.9,1.5,1.5c0.3,0.6,0.5,1.4,0.5,2.2c0,0.2,0,0.4,0,0.5
		c0,0.2,0,0.3-0.1,0.4H84c0,1.4,0.3,2.5,0.8,3.1c0.5,0.6,1.3,0.9,2.3,0.9c0.7,0,1.3-0.1,1.7-0.3c0.4-0.2,0.8-0.6,1.2-1l0.3,0.3
		c-0.4,0.8-1,1.4-1.7,1.8c-0.7,0.4-1.6,0.6-2.6,0.6c-1,0-1.9-0.2-2.6-0.6c-0.8-0.4-1.3-1-1.8-1.8c-0.4-0.8-0.6-1.7-0.6-2.8
		c0-1.1,0.2-2.1,0.7-2.9c0.5-0.8,1.1-1.4,1.9-1.8C84.4,4.5,85.3,4.3,86.1,4.3z M86,4.9c-0.4,0-0.8,0.1-1.1,0.3
		c-0.3,0.2-0.5,0.6-0.7,1.2C84.1,7,84,7.8,84,8.9h3.7c0.2-1.4,0.1-2.4-0.2-3C87.3,5.2,86.8,4.9,86,4.9z"/>
	<path class="st0" d="M91.6,14.6v-0.4l0.3-0.1c0.3-0.1,0.5-0.2,0.6-0.4c0.1-0.2,0.2-0.4,0.2-0.7V7c0-0.3-0.1-0.5-0.2-0.7
		S92.2,6,91.9,6l-0.3-0.1V5.5L95,4.3l0.3,0.2l0.2,1.8v0.1c0.2-0.4,0.5-0.7,0.8-1.1c0.3-0.3,0.7-0.6,1-0.8c0.4-0.2,0.8-0.3,1.1-0.3
		c0.5,0,0.9,0.1,1.2,0.4C99.9,5,100,5.4,100,5.8c0,0.5-0.1,0.8-0.4,1.1c-0.3,0.2-0.6,0.4-1,0.4c-0.6,0-1-0.2-1.4-0.7l0,0
		c-0.1-0.2-0.3-0.3-0.5-0.3c-0.2,0-0.3,0.1-0.5,0.3c-0.1,0.1-0.3,0.3-0.4,0.5c-0.1,0.2-0.2,0.4-0.3,0.7V13c0,0.3,0.1,0.5,0.2,0.7
		c0.1,0.2,0.3,0.3,0.6,0.4l0.6,0.2v0.4H91.6z"/>
</g>
</svg>
